# Blender 4.3.0
# www.blender.org
mtllib house2.mtl
o Cube
v 3.431126 3.431126 -3.431126
v 3.431126 -3.431126 -3.431126
v 3.431126 3.431126 3.431126
v 3.431126 -3.431126 3.431126
v -3.431126 3.431126 -3.431126
v -3.431126 -3.431126 -3.431126
v -3.431126 3.431126 3.431126
v -3.431126 -3.431126 3.431126
vn -0.0000 1.0000 -0.0000
vn -0.0000 -0.0000 1.0000
vn -1.0000 -0.0000 -0.0000
vn -0.0000 -1.0000 -0.0000
vn 1.0000 -0.0000 -0.0000
vn -0.0000 -0.0000 -1.0000
vt 0.625000 0.500000
vt 0.875000 0.500000
vt 0.875000 0.750000
vt 0.625000 0.750000
vt 0.635335 0.507524
vt 0.732302 0.507524
vt 0.732302 0.604491
vt 0.635335 0.604491
vt 0.499521 0.028042
vt 0.588505 0.028042
vt 0.588505 0.117026
vt 0.499521 0.117026
vt 0.125000 0.500000
vt 0.375000 0.500000
vt 0.375000 0.750000
vt 0.125000 0.750000
vt 0.997791 0.004239
vt 1.000274 0.997726
vt -0.000387 0.995905
vt -0.000274 0.004748
vt 0.593872 0.433919
vt 0.753054 0.433919
vt 0.753054 0.593101
vt 0.593872 0.593101
s 0
usemtl Material
f 1/1/1 5/2/1 7/3/1 3/4/1
f 4/5/2 3/6/2 7/7/2 8/8/2
f 8/9/3 7/10/3 5/11/3 6/12/3
f 6/13/4 2/14/4 4/15/4 8/16/4
f 2/17/5 1/18/5 3/19/5 4/20/5
f 6/21/6 5/22/6 1/23/6 2/24/6
o Cube.001
v 3.431126 3.532490 -3.431126
v 3.431126 3.532490 3.431126
v -3.431126 3.532490 -3.431126
v -3.431126 3.532490 3.431126
v 0.047888 6.814036 -0.047888
v 3.431126 3.472633 -3.431126
v 0.047888 6.814036 0.047888
v 3.431126 3.472633 3.431126
v -0.047888 6.814036 -0.047888
v -3.431126 3.472633 -3.431126
v -0.047888 6.814036 0.047888
v -3.431126 3.472633 3.431126
vn -0.0000 -0.0000 -1.0000
vn 1.0000 -0.0000 -0.0000
vn -0.0000 -1.0000 -0.0000
vn -0.0000 1.0000 -0.0000
vn -1.0000 -0.0000 -0.0000
vn -0.0000 0.7115 0.7027
vn 0.7027 0.7115 -0.0000
vn -0.7027 0.7115 -0.0000
vn -0.0000 0.7115 -0.7027
vn -0.0000 -0.0000 1.0000
vt 0.375000 0.750000
vt 0.501745 0.750000
vt 0.501745 1.000000
vt 0.375000 1.000000
vt 0.375000 0.000000
vt 0.501745 0.000000
vt 0.501745 0.250000
vt 0.375000 0.250000
vt 0.125000 0.500000
vt 0.375000 0.500000
vt 0.125000 0.750000
vt 0.748255 0.623255
vt 0.751745 0.623255
vt 0.751745 0.626745
vt 0.748255 0.626745
vt 0.501745 0.500000
vt 0.773125 1.195935
vt 0.744831 1.196458
vt -0.264206 0.215444
vt 1.763027 0.178011
vt 0.632819 1.238163
vt 0.623830 1.238217
vt 0.302449 0.015161
vt 0.946471 0.011243
vt 0.846097 1.154713
vt 0.830874 1.155488
vt 0.265744 0.145512
vt 1.356487 0.089998
vt 0.759435 0.894911
vt 0.740565 0.894911
vt 0.073998 0.228344
vt 1.426002 0.228344
s 0
usemtl Material.001
f 10/25/7 16/26/7 20/27/7 12/28/7
f 12/29/8 20/30/8 18/31/8 11/32/8
f 11/33/9 9/34/9 10/25/9 12/35/9
f 13/36/10 17/37/10 19/38/10 15/39/10
f 9/34/11 14/40/11 16/26/11 10/25/11
f 15/41/12 19/42/12 20/43/12 16/44/12
f 13/45/13 15/46/13 16/47/13 14/48/13
f 19/49/14 17/50/14 18/51/14 20/52/14
f 17/53/15 13/54/15 14/55/15 18/56/15
f 11/32/16 18/31/16 14/40/16 9/34/16
