# Blender 4.3.0
# www.blender.org
mtllib house1.mtl
o Cube
v 3.431126 3.431126 -3.431126
v 3.431126 -3.431126 -3.431126
v 3.431126 3.431126 3.431126
v 3.431126 -3.431126 3.431126
v -3.431126 3.431126 -3.431126
v -3.431126 -3.431126 -3.431126
v -3.431126 3.431126 3.431126
v -3.431126 -3.431126 3.431126
vn -0.0000 1.0000 -0.0000
vn -0.0000 -0.0000 1.0000
vn -1.0000 -0.0000 -0.0000
vn -0.0000 -1.0000 -0.0000
vn 1.0000 -0.0000 -0.0000
vn -0.0000 -0.0000 -1.0000
vt 0.625000 0.500000
vt 0.875000 0.500000
vt 0.875000 0.750000
vt 0.625000 0.750000
vt 0.635335 0.507524
vt 0.732302 0.507524
vt 0.732302 0.604491
vt 0.635335 0.604491
vt 0.499521 0.028042
vt 0.588505 0.028042
vt 0.588505 0.117026
vt 0.499521 0.117026
vt 0.125000 0.500000
vt 0.375000 0.500000
vt 0.375000 0.750000
vt 0.125000 0.750000
vt 0.997791 0.004239
vt 1.000274 0.997726
vt -0.000387 0.995905
vt -0.000274 0.004748
vt 0.593872 0.433919
vt 0.753054 0.433919
vt 0.753054 0.593101
vt 0.593872 0.593101
s 0
usemtl Material
f 1/1/1 5/2/1 7/3/1 3/4/1
f 4/5/2 3/6/2 7/7/2 8/8/2
f 8/9/3 7/10/3 5/11/3 6/12/3
f 6/13/4 2/14/4 4/15/4 8/16/4
f 2/17/5 1/18/5 3/19/5 4/20/5
f 6/21/6 5/22/6 1/23/6 2/24/6
o Cube.001
v 3.431126 3.462018 -3.431126
v 3.431126 3.462018 3.431126
v -3.431126 3.462018 -3.431126
v -3.431126 3.462018 3.431126
v 0.047888 8.399035 -0.047888
v 3.431126 5.057631 -3.431126
v 0.047888 8.399035 0.047888
v 3.431126 5.057631 3.431126
v -0.047888 8.399035 -0.047888
v -3.431126 5.057631 -3.431126
v -0.047888 8.399035 0.047888
v -3.431126 5.057631 3.431126
vn -0.0000 -0.0000 1.0000
vn -1.0000 -0.0000 -0.0000
vn -0.0000 -1.0000 -0.0000
vn -0.0000 1.0000 -0.0000
vn 1.0000 -0.0000 -0.0000
vn -0.0000 0.7115 0.7027
vn 0.7027 0.7115 -0.0000
vn -0.7027 0.7115 -0.0000
vn -0.0000 0.7115 -0.7027
vn -0.0000 -0.0000 -1.0000
vt 0.375000 0.750000
vt 0.501745 0.750000
vt 0.501745 1.000000
vt 0.375000 1.000000
vt 0.375000 0.000000
vt 0.501745 0.000000
vt 0.501745 0.250000
vt 0.375000 0.250000
vt 0.125000 0.500000
vt 0.375000 0.500000
vt 0.125000 0.750000
vt 0.748255 0.623255
vt 0.751745 0.623255
vt 0.751745 0.626745
vt 0.748255 0.626745
vt 0.501745 0.500000
vt 0.875000 0.750000
vt 0.625000 0.750000
vt 0.875000 0.500000
vt 0.625000 0.500000
s 0
usemtl Material.001
f 10/25/7 16/26/7 20/27/7 12/28/7
f 12/29/8 20/30/8 18/31/8 11/32/8
f 11/33/9 9/34/9 10/25/9 12/35/9
f 13/36/10 17/37/10 19/38/10 15/39/10
f 9/34/11 14/40/11 16/26/11 10/25/11
f 15/39/12 19/38/12 20/41/12 16/42/12
f 13/36/13 15/39/13 16/26/13 14/40/13
f 19/38/14 17/37/14 18/43/14 20/41/14
f 17/37/15 13/36/15 14/44/15 18/43/15
f 11/32/16 18/31/16 14/40/16 9/34/16
