# Blender 4.3.0
# www.blender.org
mtllib straight1.mtl
o Straight
v -115.650337 -0.000000 -3.000000
v 115.650337 -0.000000 -3.000000
v -115.650337 0.000000 0.000000
v 115.650337 0.000000 0.000000
v -115.650337 -0.200000 -3.000000
v 115.650337 -0.200000 -3.000000
v -115.650337 -0.200000 0.000000
v 115.650337 -0.200000 0.000000
v -115.650337 -0.200000 -5.000000
v 115.650337 -0.200000 -5.000000
v 115.650337 0.200000 -3.000000
v -115.650337 0.200000 -3.000000
v 115.650337 0.200000 -5.000000
v -115.650337 0.200000 -5.000000
v -115.650337 0.200000 -3.299855
v 115.650337 0.200000 -3.299855
v -115.650337 0.000000 3.000000
v 115.650337 0.000000 3.000000
v -115.650337 -0.200000 3.000000
v 115.650337 -0.200000 3.000000
v -115.650337 -0.200000 5.000000
v 115.650337 -0.200000 5.000000
v 115.650337 0.200000 3.000000
v -115.650337 0.200000 3.000000
v 115.650337 0.200000 5.000000
v -115.650337 0.200000 5.000000
v -115.650337 0.200000 3.299855
v 115.650337 0.200000 3.299855
vn 1.0000 -0.0000 -0.0000
vn -1.0000 -0.0000 -0.0000
vn -0.0000 -0.0000 -1.0000
vn -0.0000 -0.0000 1.0000
vn -0.0000 1.0000 -0.0000
vn -0.0000 -1.0000 -0.0000
vt -3.167773 -390.657227
vt -2.330338 -381.120117
vt -2.330338 -371.582886
vt -22.275866 -97.002853
vt -24.422689 -261.311462
vt -22.275866 -261.311462
vt -22.275866 -203.119217
vt -24.422689 -367.427856
vt -22.275866 -367.427856
vt -1.210123 -341.647888
vt -2.551891 421.489258
vt -2.551891 -341.647888
vt -2.336306 -381.120117
vt -3.171508 -370.859192
vt -7.906851 -370.859192
vt -257.552795 -446.810608
vt 258.352844 -89.505142
vt 258.271515 -45.432312
vt 10.686864 426.867554
vt 9.935862 -470.257324
vt 10.686864 -470.257324
vt -25.361927 -117.541473
vt -18.205828 238.460114
vt -25.361927 238.460114
vt -18.205828 -117.541473
vt -7.471690 238.460114
vt 17.585348 491.566406
vt 10.855045 -473.341125
vt 17.585348 -473.341125
vt 5.677628 426.867554
vt 5.677628 -470.257324
vt -7.915869 -390.657227
vt -2.336306 -391.380859
vt 258.271606 -45.432312
vt 17.585348 491.567139
vt -7.915869 -371.582886
vt -2.330338 -390.657227
vt -24.422689 -97.002853
vt -24.422689 -203.119217
vt -1.210123 421.489258
vt -7.906851 -391.380859
vt -2.336306 -370.859192
vt -257.471466 -490.884155
vt 9.935862 426.867554
vt -7.471690 -117.541473
vt 10.855045 491.567139
vt -257.471466 -490.883484
s 1
usemtl Material.001
f 16/1/1 2/2/1 6/3/1
f 4/4/1 6/5/1 2/6/1
f 1/7/2 7/8/2 3/9/2
f 14/10/3 10/11/3 9/12/3
f 1/13/2 15/14/2 14/15/2
f 2/16/4 12/17/4 1/18/4
f 11/19/5 15/20/5 12/21/5
f 10/22/6 5/23/6 9/24/6
f 6/25/6 7/26/6 5/23/6
f 4/27/5 1/28/5 3/29/5
f 15/20/5 13/30/5 14/31/5
f 18/2/1 28/1/1 25/32/1
f 20/5/1 4/4/1 18/6/1
f 7/8/2 17/7/2 3/9/2
f 22/11/4 26/10/4 21/12/4
f 27/14/2 17/13/2 19/33/2
f 24/17/3 18/16/3 17/34/3
f 27/20/5 23/19/5 24/21/5
f 19/23/6 22/22/6 21/24/6
f 7/26/6 20/25/6 19/23/6
f 17/28/5 4/35/5 3/29/5
f 25/30/5 27/20/5 26/31/5
f 6/3/1 10/36/1 13/32/1
f 16/1/1 11/37/1 2/2/1
f 6/3/1 13/32/1 16/1/1
f 4/4/1 8/38/1 6/5/1
f 1/7/2 5/39/2 7/8/2
f 14/10/3 13/40/3 10/11/3
f 14/15/2 9/41/2 5/33/2
f 1/13/2 12/42/2 15/14/2
f 14/15/2 5/33/2 1/13/2
f 2/16/4 11/43/4 12/17/4
f 11/19/5 16/44/5 15/20/5
f 10/22/6 6/25/6 5/23/6
f 6/25/6 8/45/6 7/26/6
f 4/27/5 2/46/5 1/28/5
f 15/20/5 16/44/5 13/30/5
f 25/32/1 22/36/1 20/3/1
f 18/2/1 23/37/1 28/1/1
f 25/32/1 20/3/1 18/2/1
f 20/5/1 8/38/1 4/4/1
f 7/8/2 19/39/2 17/7/2
f 22/11/4 25/40/4 26/10/4
f 19/33/2 21/41/2 26/15/2
f 27/14/2 24/42/2 17/13/2
f 19/33/2 26/15/2 27/14/2
f 24/17/3 23/47/3 18/16/3
f 27/20/5 28/44/5 23/19/5
f 19/23/6 20/25/6 22/22/6
f 7/26/6 8/45/6 20/25/6
f 17/28/5 18/46/5 4/35/5
f 25/30/5 28/44/5 27/20/5
